<?xml version="1.0" standalone="no"?>
<!DOCTYPE svg PUBLIC "-//W3C//DTD SVG 20010904//EN"
 "http://www.w3.org/TR/2001/REC-SVG-20010904/DTD/svg10.dtd">
<svg version="1.0" xmlns="http://www.w3.org/2000/svg"
 width="184.000000pt" height="184.000000pt" viewBox="0 0 184.000000 184.000000"
 preserveAspectRatio="xMidYMid meet">

<g transform="translate(0.000000,184.000000) scale(0.100000,-0.100000)"
fill="#000000" stroke="none">
<path d="M921 1666 c-8 -10 -9 -16 -1 -21 20 -12 11 -43 -15 -47 -23 -5 -25
-2 -25 28 0 18 -4 35 -9 38 -13 8 -21 -18 -10 -35 15 -25 10 -39 -16 -39 -20
0 -25 5 -25 24 0 14 -5 28 -11 31 -7 5 -8 -4 -4 -28 8 -41 -8 -57 -27 -27 -7
11 -16 20 -20 20 -4 0 7 -21 25 -46 30 -43 34 -45 67 -40 19 3 45 6 58 6 19 0
21 4 16 25 -5 19 -2 25 11 25 13 0 16 -6 11 -25 -6 -22 -3 -25 23 -25 16 0 41
-4 54 -9 22 -8 28 -5 56 35 17 25 31 50 31 57 -1 7 -7 0 -16 -15 -9 -17 -20
-25 -29 -22 -8 4 -15 10 -15 14 0 4 -11 5 -25 2 -20 -3 -25 0 -25 16 0 12 5
24 10 27 8 5 7 11 -1 21 -17 21 -29 7 -22 -26 5 -27 3 -30 -21 -30 -27 0 -36
26 -16 46 8 8 7 14 -3 23 -11 9 -17 8 -26 -3z m-31 -106 c0 -5 -7 -10 -15 -10
-8 0 -15 5 -15 10 0 6 7 10 15 10 8 0 15 -4 15 -10z m110 0 c0 -5 -4 -10 -10
-10 -5 0 -10 5 -10 10 0 6 5 10 10 10 6 0 10 -4 10 -10z m-160 -10 c0 -5 -4
-10 -10 -10 -5 0 -10 5 -10 10 0 6 5 10 10 10 6 0 10 -4 10 -10z m205 0 c3 -5
1 -10 -4 -10 -6 0 -11 5 -11 10 0 6 2 10 4 10 3 0 8 -4 11 -10z"/>
<path d="M1050 1625 c0 -8 2 -15 4 -15 2 0 6 7 10 15 3 8 1 15 -4 15 -6 0 -10
-7 -10 -15z"/>
<path d="M613 1499 c1 -28 6 -41 19 -45 26 -8 42 4 28 21 -9 11 -7 12 10 8 19
-5 21 -2 18 22 -3 24 -8 28 -40 31 l-37 3 2 -40z"/>
<path d="M1190 1531 c-30 -8 -36 -47 -7 -45 13 2 15 -1 7 -10 -5 -7 -7 -16 -3
-19 11 -12 40 -7 53 8 9 11 9 15 1 15 -8 0 -9 5 -1 19 21 40 8 48 -50 32z"/>
<path d="M800 1486 c-19 -8 -50 -19 -68 -26 -41 -15 -37 -23 5 -11 28 8 32 7
37 -15 4 -14 14 -24 24 -24 16 1 16 1 0 11 -22 12 -23 23 -2 43 38 39 103 2
84 -48 -19 -51 -119 -67 -177 -30 -19 12 -23 12 -23 1 0 -15 87 -37 142 -37
37 0 88 48 88 83 0 47 -55 74 -110 53z"/>
<path d="M984 1490 c-28 -11 -37 -26 -36 -62 1 -37 25 -65 63 -73 35 -8 171
14 163 26 -2 5 -15 4 -28 0 -55 -22 -131 -16 -156 11 -29 31 -23 70 13 82 36
13 62 -3 62 -37 -1 -14 3 -23 7 -21 4 3 8 14 8 26 0 14 5 18 16 14 49 -19 60
-13 14 7 -70 31 -100 37 -126 27z"/>
<path d="M668 1433 c12 -2 20 -8 17 -13 -3 -4 5 -6 17 -2 21 5 21 6 2 13 -10
4 -28 7 -39 7 -17 -1 -16 -1 3 -5z"/>
<path d="M1155 1430 c-25 -11 1 -11 35 0 20 6 21 8 5 8 -11 0 -29 -3 -40 -8z"/>
<path d="M483 1406 c-64 -11 -108 -26 -74 -26 7 0 19 -16 27 -36 17 -40 13
-95 -12 -195 -8 -31 -14 -65 -14 -75 0 -34 35 13 36 49 1 17 5 64 9 103 5 45
4 83 -3 102 l-11 31 74 -2 74 -2 -32 -34 -32 -34 38 28 c25 19 56 30 95 35
l57 7 -45 4 c-46 3 -89 6 -147 8 -32 1 -46 18 -20 25 6 2 28 8 47 14 47 13 21
13 -67 -2z"/>
<path d="M1338 1400 c53 -17 36 -30 -40 -31 -40 0 -91 -4 -113 -8 l-40 -9 41
-1 c22 0 63 -12 90 -25 l49 -25 -33 28 -33 28 41 -4 c22 -2 56 0 75 6 19 5 35
7 35 5 0 -3 -5 -25 -11 -49 -11 -42 -1 -141 18 -192 4 -11 3 -14 -6 -9 -17 11
-33 52 -41 106 l-7 45 -2 -38 c-1 -46 16 -90 58 -141 37 -46 37 -43 11 66 -26
109 -26 178 0 211 24 30 19 33 -66 41 -49 5 -54 4 -26 -4z"/>
<path d="M835 1310 c-69 -7 -166 -29 -216 -48 -36 -14 -39 -40 -39 -324 0
-205 2 -238 15 -238 13 0 15 36 15 265 l0 264 65 20 c162 50 327 50 495 -2
l75 -23 3 -262 c1 -166 6 -262 12 -262 7 0 9 96 8 272 l-3 273 -60 22 c-105
37 -257 55 -370 43z"/>
<path d="M372 1249 c-15 -23 -15 -22 14 -37 30 -16 50 7 34 37 -14 27 -32 27
-48 0z"/>
<path d="M1440 1249 c-19 -34 -6 -50 29 -38 30 11 30 11 13 35 -21 29 -28 30
-42 3z"/>
<path d="M825 1243 c-16 -2 -65 -13 -107 -25 l-78 -20 2 -252 3 -251 2 246 3
246 58 16 c156 44 288 43 434 -3 l68 -21 3 -242 2 -242 3 247 2 246 -48 16
c-117 39 -242 53 -347 39z"/>
<path d="M485 1205 c-4 -22 -14 -53 -22 -70 -13 -28 -13 -28 2 -10 18 22 38
91 32 108 -3 7 -8 -6 -12 -28z"/>
<path d="M1321 1122 c0 -34 8 -106 20 -159 14 -64 20 -120 17 -165 -2 -37 -2
-68 -1 -68 1 0 9 13 18 30 22 42 19 97 -11 213 -15 56 -30 127 -34 157 l-7 55
-2 -63z"/>
<path d="M532 1150 c-1 -14 -13 -70 -27 -123 -40 -154 -46 -195 -35 -238 15
-55 28 -56 22 -1 -2 29 6 97 23 176 14 70 24 147 22 170 -2 22 -4 30 -5 16z"/>
<path d="M758 1142 c9 -6 12 -51 10 -187 l-3 -179 -25 -7 c-14 -4 20 -7 75 -7
55 0 91 3 80 5 -30 8 -35 21 -35 101 0 99 17 97 95 -16 l61 -87 64 -3 c51 -1
61 0 47 9 -10 6 -45 47 -78 92 l-59 81 34 20 c62 35 71 109 20 157 -24 23 -34
24 -162 27 -78 1 -132 -1 -124 -6z m180 -13 c55 -19 68 -120 19 -154 -12 -8
-38 -15 -59 -15 l-38 0 0 83 c0 46 3 87 7 90 9 10 36 9 71 -4z"/>
<path d="M452 1071 c-24 -36 -46 -79 -48 -96 l-5 -30 15 33 c9 18 32 60 52 93
51 81 39 81 -14 0z"/>
<path d="M1360 1124 c0 -5 21 -43 45 -84 25 -41 45 -78 45 -84 0 -5 3 -7 6 -4
3 3 -1 21 -9 39 -16 38 -87 146 -87 133z"/>
<path d="M1423 875 c-1 -62 -21 -125 -50 -157 -15 -16 -15 -18 0 -18 40 0 77
118 60 192 l-10 43 0 -60z"/>
<path d="M424 845 c2 -74 28 -145 52 -145 9 0 6 14 -13 50 -14 27 -29 76 -34
107 l-8 58 3 -70z"/>
<path d="M345 850 c4 -6 -7 -15 -24 -21 -38 -13 -39 -22 -5 -37 14 -7 22 -17
19 -22 -13 -21 35 -9 49 12 20 29 20 34 -4 58 -21 21 -46 28 -35 10z m38 -47
c-7 -2 -19 -2 -25 0 -7 3 -2 5 12 5 14 0 19 -2 13 -5z"/>
<path d="M1484 852 c-6 -4 -16 -16 -22 -28 -10 -19 -9 -21 16 -18 15 2 19 1 9
-2 -22 -7 -18 -37 5 -42 20 -4 72 43 63 57 -3 6 -15 11 -26 11 -10 0 -19 7
-19 15 0 16 -9 19 -26 7z"/>
<path d="M366 635 c19 -162 146 -288 442 -438 80 -42 92 -45 92 -29 0 35 -60
96 -193 195 -140 105 -195 155 -246 226 -35 49 -41 40 -12 -17 28 -53 77 -100
239 -229 78 -63 142 -116 142 -119 0 -8 -124 58 -185 99 -145 97 -224 187
-262 296 l-24 66 7 -50z"/>
<path d="M550 610 c0 -47 3 -60 15 -60 12 0 15 13 15 60 0 47 -3 60 -15 60
-12 0 -15 -13 -15 -60z"/>
<path d="M617 649 c4 -14 0 -26 -11 -34 -16 -12 -15 -15 8 -41 29 -35 45 -27
21 10 -10 14 -13 26 -7 26 16 0 23 31 11 46 -17 21 -28 17 -22 -7z"/>
<path d="M803 641 c9 -24 9 -38 0 -62 -12 -31 -12 -31 7 -14 11 10 20 30 20
45 0 15 -9 35 -20 45 -19 17 -19 17 -7 -14z"/>
<path d="M900 638 c11 -18 20 -45 20 -59 0 -42 27 -45 32 -3 2 19 1 34 -3 34
-4 0 -12 14 -19 30 -8 18 -20 30 -31 30 -18 0 -18 -1 1 -32z"/>
<path d="M976 653 c-6 -14 -5 -15 5 -6 7 7 10 15 7 18 -3 3 -9 -2 -12 -12z"/>
<path d="M1223 610 c1 -47 4 -60 16 -60 13 0 15 11 13 60 -3 41 -8 60 -17 60
-10 0 -13 -16 -12 -60z"/>
<path d="M1473 628 c-30 -113 -142 -232 -314 -335 -58 -34 -113 -65 -124 -68
-25 -8 -29 -12 166 147 148 120 190 163 215 223 22 54 17 54 -20 0 -44 -66
-116 -132 -257 -237 -109 -81 -179 -147 -179 -168 0 -4 -3 -16 -7 -26 -9 -25
255 113 342 178 115 87 205 230 193 310 -2 16 -7 8 -15 -24z"/>
<path d="M722 648 c-17 -17 -15 -64 4 -82 20 -20 30 -21 14 -1 -8 9 -11 30 -7
55 6 45 6 45 -11 28z"/>
<path d="M1305 560 c-3 -5 -1 -10 4 -10 6 0 11 5 11 10 0 6 -2 10 -4 10 -3 0
-8 -4 -11 -10z"/>
<path d="M635 493 c33 -53 71 -86 165 -148 53 -34 102 -70 109 -79 13 -15 16
-15 35 3 12 10 62 46 111 79 90 60 127 93 160 145 29 46 0 30 -67 -36 -34 -35
-85 -76 -113 -92 -27 -15 -62 -38 -77 -51 l-27 -22 -104 68 c-57 38 -122 89
-144 114 -45 52 -76 64 -48 19z"/>
<path d="M713 494 c12 -15 58 -50 102 -79 44 -29 86 -59 94 -68 12 -15 17 -14
55 17 22 18 59 43 80 56 50 30 106 79 106 92 0 6 -19 -7 -42 -28 -24 -22 -61
-50 -83 -64 -22 -13 -53 -34 -69 -47 -28 -24 -29 -24 -50 -5 -11 11 -42 31
-68 46 -25 15 -66 45 -91 66 -52 46 -67 52 -34 14z"/>
</g>
</svg>
