<?xml version="1.0" standalone="no"?>
<!DOCTYPE svg PUBLIC "-//W3C//DTD SVG 20010904//EN"
 "http://www.w3.org/TR/2001/REC-SVG-20010904/DTD/svg10.dtd">
<svg version="1.0" xmlns="http://www.w3.org/2000/svg"
 width="500.000000pt" height="100.000000pt" viewBox="0 0 500.000000 100.000000"
 preserveAspectRatio="xMidYMid meet">

<g transform="translate(0.000000,100.000000) scale(0.100000,-0.100000)"
fill="#000000" stroke="none">
<path d="M290 425 c0 -157 4 -245 10 -245 6 0 13 -1 18 -2 4 -2 9 68 12 155
l5 157 34 -77 c89 -202 104 -232 120 -236 38 -8 49 7 96 131 27 70 59 150 71
177 l23 50 0 -180 1 -180 110 3 110 3 0 245 0 245 -111 -3 -111 -3 -37 -92
c-20 -50 -39 -95 -43 -98 -4 -4 -30 38 -57 94 l-51 101 -100 0 -100 0 0 -245z"/>
<path d="M1150 656 c-100 -29 -163 -76 -194 -140 -22 -46 -20 -141 3 -191 86
-190 487 -206 607 -25 32 48 43 136 25 192 -19 57 -74 112 -143 143 -52 23
-80 29 -158 32 -60 2 -111 -2 -140 -11z m156 -47 c16 -18 19 -40 22 -163 4
-163 -3 -205 -41 -226 -25 -14 -28 -13 -49 8 -21 21 -23 32 -26 164 -2 78 -1
156 3 174 11 62 55 82 91 43z"/>
<path d="M1779 654 c-56 -17 -113 -75 -128 -131 -17 -61 -13 -172 8 -218 42
-92 126 -135 264 -135 137 0 210 53 233 169 5 26 3 31 -12 31 -14 0 -24 -14
-37 -49 -32 -91 -111 -128 -162 -77 -32 32 -45 85 -45 186 0 69 4 94 23 130
48 96 148 74 181 -39 14 -48 32 -63 42 -36 11 28 -17 102 -51 135 -18 17 -50
36 -71 41 -58 13 -193 10 -245 -7z"/>
<path d="M2207 663 c-11 -11 -8 -483 3 -483 6 -1 58 -1 118 -1 l107 -1 3 111
3 111 79 0 79 0 3 -111 3 -110 113 -2 112 -2 0 248 0 247 -115 0 -115 0 0
-110 0 -110 -80 0 -80 0 0 110 0 110 -113 0 c-63 0 -117 -3 -120 -7z"/>
<path d="M3009 656 c-94 -25 -146 -91 -136 -170 8 -59 67 -110 161 -137 116
-33 156 -55 156 -84 0 -19 -8 -28 -27 -36 -43 -17 -144 -5 -209 25 -55 26 -86
24 -69 -4 13 -20 110 -59 181 -71 185 -32 344 39 344 154 0 86 -41 120 -205
167 -119 34 -151 55 -140 89 11 37 73 47 158 27 90 -22 119 -24 124 -10 8 24
-137 64 -232 63 -33 0 -81 -6 -106 -13z"/>
<path d="M3450 426 l0 -245 28 -3 c15 -2 69 -2 120 0 l93 3 -3 110 -3 109 78
0 77 0 0 -110 0 -110 120 0 120 0 0 245 0 245 -120 0 -120 0 0 -110 0 -110
-77 0 -78 0 0 107 0 108 -117 3 -118 3 0 -245z"/>
<path d="M4289 643 c-81 -206 -169 -450 -165 -459 3 -7 13 -10 23 -8 12 3 29
32 48 82 l30 77 77 3 77 3 37 -81 37 -80 111 -1 c113 -1 138 0 145 7 2 2 -44
111 -102 241 l-105 238 -101 3 -101 3 -11 -28z m42 -196 l28 -62 -30 -3 c-16
-2 -42 -2 -58 0 l-28 3 25 67 c15 37 28 65 31 62 2 -2 17 -32 32 -67z"/>
</g>
</svg>
