<?xml version="1.0" encoding="UTF-8"?>
<svg version="1.1" xmlns="http://www.w3.org/2000/svg" width="539" height="382">
<path d="M0 0 C177.87 0 355.74 0 539 0 C539 126.06 539 252.12 539 382 C361.13 382 183.26 382 0 382 C0 255.94 0 129.88 0 0 Z " fill="#F0F0F0" transform="translate(0,0)"/>
<path d="M0 0 C10.65956616 9.10906939 20.43803744 19.25711131 30.35546875 29.15234375 C31.6460189 30.43865283 31.6460189 30.43865283 32.96264076 31.75094795 C37.50797412 36.28139252 42.05050375 40.81462531 46.59057617 45.3503418 C51.250319 50.00458737 55.9192829 54.64946665 60.59044933 59.292243 C64.21169651 62.89478348 67.8261377 66.50409531 71.43880653 70.11523628 C73.156526 71.82995142 74.87671932 73.54219243 76.5995388 75.25178337 C100.87811056 99.3570447 100.87811056 99.3570447 105 114 C105.33451172 115.01126953 105.33451172 115.01126953 105.67578125 116.04296875 C109.53936272 128.7901593 105.92490012 140.93752298 100.82421875 152.71484375 C97.96696483 158.03128216 94.02508843 162.29157127 89.91870117 166.65234375 C89.30873637 167.30251465 88.69877157 167.95268555 88.07032299 168.62255859 C80.10978855 177.06197327 71.92422692 185.28018762 63.73828125 193.5 C62.47077561 194.77361893 62.47077561 194.77361893 61.1776638 196.07296753 C56.71989824 200.55138519 52.25901402 205.02666972 47.7956543 209.49951172 C43.21476673 214.09153331 38.64570121 218.69513908 34.07903767 223.30130005 C30.53306857 226.87347112 26.9781873 230.43667285 23.4208889 233.99755859 C21.73236373 235.69092548 20.04719081 237.38764248 18.36559486 239.08789062 C4.40982369 253.18903567 -9.08112049 265.98525073 -30.0625 266.25 C-46.58499154 266.20359417 -58.37248577 259.8292729 -70.33203125 248.72265625 C-72.37737722 246.63538518 -74.27813544 244.53927452 -76.17552185 242.32418823 C-79.89516259 238.0585852 -83.83055641 234.06210204 -87.85961914 230.09033203 C-88.98786354 228.97150635 -88.98786354 228.97150635 -90.13890076 227.83007812 C-91.7588943 226.22384608 -93.37995981 224.61869459 -95.00200081 223.01453018 C-97.57429716 220.46908009 -100.14201775 217.91909875 -102.70835876 215.36764526 C-110.00064587 208.11790519 -117.29553743 200.87085785 -124.60668945 193.64013672 C-129.09087672 189.20462382 -133.56510901 184.75927591 -138.03310966 180.30746078 C-139.72981707 178.62061012 -141.43016346 176.93741109 -143.13429451 175.25806046 C-145.5221997 172.90412379 -147.89718493 170.53781562 -150.26977539 168.16845703 C-150.96656403 167.48762054 -151.66335266 166.80678406 -152.3812561 166.10531616 C-164.28973098 154.12308163 -168.29152606 141.5092233 -168.31689453 125.01831055 C-168.10080873 109.57351114 -160.63423295 97.96379162 -149.81079102 87.37255859 C-149.01161255 86.57440231 -148.21243408 85.77624603 -147.38903809 84.9539032 C-144.76990701 82.34259563 -142.13702038 79.74563782 -139.50390625 77.1484375 C-137.66742126 75.32196842 -135.83190083 73.49452903 -133.99729919 71.66616821 C-129.67101428 67.3586216 -125.33630445 63.05973747 -120.99692339 58.76538908 C-112.77140802 50.62435328 -104.56731655 42.46173742 -96.36161613 34.30073929 C-93.67546055 31.63218672 -90.98507917 28.96795799 -88.2938385 26.30453491 C-86.63537167 24.65929633 -84.97695726 23.01400491 -83.31860352 21.36865234 C-82.20632637 20.27119438 -82.20632637 20.27119438 -81.07157898 19.15156555 C-77.04061269 15.14599561 -73.20688959 11.04555533 -69.53100491 6.71061134 C-63.56752835 0.04754279 -55.42537987 -5.09524999 -47 -8 C-45.824375 -8.4125 -44.64875 -8.825 -43.4375 -9.25 C-28.10076781 -12.61063853 -12.62929831 -9.19649388 0 0 Z " fill="#020202" transform="translate(285,67)"/>
<path d="M0 0 C8.86410074 6.05131814 16.39760142 14.05872085 23.94921875 21.62890625 C25.26814873 22.94640114 25.26814873 22.94640114 26.61372375 24.29051208 C28.45603138 26.13214445 30.29709788 27.97501916 32.13696289 29.8190918 C34.93718845 32.62468785 37.74273172 35.42488656 40.54882812 38.22460938 C42.34927914 40.02572104 44.14942001 41.82714279 45.94921875 43.62890625 C46.77854416 44.45620743 47.60786957 45.28350861 48.46232605 46.13587952 C52.64993013 50.3402339 56.65357364 54.62506113 60.5243988 59.12120056 C63.59645057 62.5772554 66.92032369 65.77419794 70.23046875 69 C71.73937284 70.48653212 73.247823 71.97352512 74.75585938 73.4609375 C77.10146717 75.76941491 79.44995818 78.07464618 81.80639648 80.37207031 C84.10284807 82.6138388 86.38622406 84.86827667 88.66796875 87.125 C89.36907272 87.80232178 90.0701767 88.47964355 90.79252625 89.17749023 C95.86155713 94.21932062 99.57793482 99.17842673 100.81640625 106.3359375 C100.81447266 107.87121094 100.81447266 107.87121094 100.8125 109.4375 C100.83441406 110.45585937 100.85632813 111.47421875 100.87890625 112.5234375 C99.25054633 121.68675484 93.89332734 128.13607184 87.3515625 134.4140625 C86.22178482 135.52967056 86.22178482 135.52967056 85.06918335 136.66781616 C82.68277651 139.01994398 80.27982973 141.35422531 77.875 143.6875 C75.48089765 146.03132233 73.09043353 148.37876505 70.70223999 150.72860718 C69.22272137 152.18211845 67.73927234 153.6316445 66.25112915 155.07632446 C63.00779256 158.2427855 59.87341684 161.43482255 56.91894531 164.8737793 C52.32341134 170.21150317 47.34356877 175.17346827 42.3828125 180.16796875 C41.87090237 180.68395441 41.35899223 181.19994007 40.83156967 181.73156166 C38.12680544 184.45702254 35.41889364 187.17931173 32.70849609 189.89916992 C29.93084884 192.68791229 27.16509381 195.48815064 24.40176582 198.29107189 C22.25331066 200.46579629 20.0958975 202.63146894 17.93606186 204.79488564 C16.91294247 205.82283574 15.89316521 206.85412478 14.87701797 207.88896751 C1.82449414 221.16680961 1.82449414 221.16680961 -7.4453125 222.65625 C-23.50913113 222.2171479 -30.50720016 214.44390752 -41.48925781 203.50024414 C-42.32280792 202.67326523 -43.15635803 201.84628632 -44.01516724 200.99424744 C-46.74737528 198.28160527 -49.4756802 195.56508719 -52.203125 192.84765625 C-53.1490248 191.90581165 -54.0949555 190.96399808 -55.04091644 190.02221489 C-59.481528 185.60058646 -63.91977069 181.1765972 -68.35508657 176.74965674 C-73.45348645 171.66104823 -78.56008152 166.58085107 -83.67370343 161.50754076 C-87.64358887 157.56787038 -91.60571454 153.62050213 -95.56217456 149.66734976 C-97.91820192 147.31366363 -100.27827182 144.96443706 -102.6447525 142.62123299 C-105.28212639 140.00821393 -107.90657814 137.38284039 -110.52832031 134.75415039 C-111.69414139 133.6075444 -111.69414139 133.6075444 -112.8835144 132.43777466 C-119.23339368 126.02644724 -123.77698389 119.30273821 -124.125 110 C-124.17398438 109.12214844 -124.22296875 108.24429688 -124.2734375 107.33984375 C-122.35162626 95.30701067 -112.96803522 87.62862319 -104.69921875 79.5234375 C-103.31521581 78.14877492 -101.9323237 76.77299314 -100.55049133 75.39614868 C-96.93325272 71.79788317 -93.30124867 68.21489664 -89.66583252 64.63500977 C-85.94972701 60.97030619 -82.24796206 57.29117804 -78.54492188 53.61328125 C-71.29381773 46.41559365 -64.02701389 39.23398472 -56.75 32.0625 C-56.28520233 32.46195328 -55.82040466 32.86140656 -55.34152222 33.27296448 C-54.72334625 33.80365036 -54.10517029 34.33433624 -53.46826172 34.88110352 C-52.85908905 35.40430679 -52.24991638 35.92751007 -51.62228394 36.46656799 C-49.84594226 37.98071896 -48.05336771 39.47358868 -46.2578125 40.96484375 C-37.25496851 48.85270418 -37.25496851 48.85270418 -35.8671875 54.92578125 C-35.7900778 57.4832529 -35.77411079 60.04341936 -35.82421875 62.6015625 C-35.71570988 67.66150222 -34.00390452 71.24437925 -30.75 75.0625 C-29.74242142 75.77934464 -28.73484283 76.49618927 -27.69673157 77.23475647 C-25.10570659 79.38524687 -24.78456538 79.91264808 -23.98136902 83.39476013 C-23.96968437 85.29621544 -23.96968437 85.29621544 -23.95776367 87.23608398 C-23.94564346 87.93918701 -23.93352325 88.64229004 -23.92103577 89.36669922 C-23.88963368 91.68153762 -23.90211862 93.99363138 -23.91796875 96.30859375 C-23.91138307 97.92375919 -23.90316432 99.53891872 -23.89338684 101.15406799 C-23.88004322 104.53607427 -23.88885895 107.91713158 -23.9128418 111.29907227 C-23.94141204 115.62527775 -23.91138348 119.94875694 -23.86420727 124.27471828 C-23.83496094 127.60954999 -23.83876157 130.94373431 -23.85222816 134.27864265 C-23.8543765 135.87299792 -23.84591993 137.46740518 -23.82649803 139.0616436 C-23.70021324 151.53921073 -23.70021324 151.53921073 -26.28262329 155.28640747 C-28.15356445 156.87133789 -28.15356445 156.87133789 -30.01216125 157.99012756 C-33.4361064 160.10294983 -34.75094678 163.28245654 -35.75 167.0625 C-36.84056816 175.54996527 -36.68102967 182.81281476 -31.671875 189.96875 C-27.2736084 194.76035751 -21.7667041 198.63454066 -15.18359375 199.3359375 C-6.69523382 199.62367851 -0.40103485 198.11371852 6.09765625 192.453125 C10.85256752 187.3594117 13.30799487 181.64101334 13.6875 174.6875 C13.43337428 168.01092438 11.05733071 162.13431813 6.6875 157.125 C5.35215677 155.99509419 4.00656002 154.87564929 2.61894226 153.81059265 C0.60709849 151.24153666 0.88975517 149.26273347 0.90942383 146.03051758 C0.90965042 144.78945755 0.90987701 143.54839752 0.91011047 142.26972961 C0.92543032 140.91549316 0.9410783 139.56126039 0.95703125 138.20703125 C0.96262749 136.8212683 0.96689746 135.43549941 0.96989441 134.04972839 C0.98134117 130.40487236 1.01080642 126.76037577 1.04400635 123.11566162 C1.07471115 119.39551658 1.08840059 115.67531339 1.10351562 111.95507812 C1.13567669 104.65738833 1.18687049 97.35999456 1.25 90.0625 C1.7143898 90.46113754 2.1787796 90.85977509 2.65724182 91.27049255 C6.43591539 94.51440085 6.43591539 94.51440085 10.23803711 97.73071289 C20.78236476 106.66621529 20.78236476 106.66621529 21.91015625 112.4453125 C21.80438043 114.62790626 21.63353504 116.80842335 21.39453125 118.98046875 C21.09673651 125.33074044 24.72435006 130.16574602 28.5625 134.9375 C35.16250237 140.15610653 40.4681914 141.81023878 48.99609375 141.50390625 C56.08792998 140.54186844 61.32470053 137.69276054 65.75 132.0625 C70.59405817 125.07804403 71.17124356 118.40217852 70.25 110.0625 C68.05503034 102.589394 63.95272679 97.88880711 57.25 94.0625 C54.20316534 92.53908267 52.17899965 91.92119465 48.79101562 92.43652344 C43.74100008 93.06734799 39.96233941 92.88418178 35.83496094 89.78857422 C32.78760133 87.20389055 29.98863281 84.39740841 27.23632812 81.50341797 C25.49873438 79.68617637 23.70958024 77.93535817 21.90625 76.18359375 C13.72197704 67.98517862 13.72197704 67.98517862 12.53417969 63.14648438 C12.5625 60.5078125 12.5625 60.5078125 12.94140625 58.23486328 C13.66751069 53.12340975 10.85932412 48.19410193 8.5 43.8125 C4.6356823 39.08944503 0.06198405 35.95916087 -5.75 34.0625 C-7.8096737 34.15868471 -9.86694307 34.31958778 -11.91796875 34.53125 C-17.50658304 34.61952031 -20.05810344 33.6926204 -24.17578125 29.90625 C-25.83928651 28.15726819 -27.46811308 26.37471342 -29.0625 24.5625 C-29.91005859 23.65628906 -30.75761719 22.75007813 -31.63085938 21.81640625 C-33.70331627 19.59173501 -35.7393226 17.34290631 -37.75 15.0625 C-34.50235973 8.21136292 -28.14218724 1.69442489 -21.109375 -1.34375 C-14.18781843 -3.08559867 -6.45664622 -3.30286698 0 0 Z " fill="#EFEFEF" transform="translate(265.75,84.9375)"/>
<path d="M0 0 C0.99 0.495 0.99 0.495 2 1 C-29.68 32.68 -61.36 64.36 -94 97 C-94.66 96.67 -95.32 96.34 -96 96 C-95.36803916 95.36942184 -95.36803916 95.36942184 -94.72331142 94.72610474 C-84.44501464 84.46994744 -74.1695281 74.21098062 -63.89711666 63.94892883 C-58.92927558 58.98623149 -53.96050744 54.02446921 -48.98950195 49.06494141 C-44.18911711 44.27563496 -39.39138934 39.48367973 -34.59524727 34.69012451 C-32.76817562 32.86489559 -30.94022638 31.04054469 -29.11137199 29.21710205 C-26.54316739 26.65619282 -23.97814648 24.09213384 -21.41381836 21.52734375 C-20.66287399 20.77999466 -19.91192963 20.03264557 -19.13822937 19.26264954 C-15.1074377 15.22403159 -11.25815787 11.09913333 -7.57114506 6.74317932 C-5.26453035 4.18399929 -2.71274674 2.11726575 0 0 Z " fill="#0E0E0E" transform="translate(223,67)"/>
</svg>
