<?xml version="1.0" encoding="UTF-8"?>
<svg version="1.1" xmlns="http://www.w3.org/2000/svg" width="550" height="309">
<path d="M0 0 C181.5 0 363 0 550 0 C550 101.97 550 203.94 550 309 C368.5 309 187 309 0 309 C0 207.03 0 105.06 0 0 Z " fill="#F0F0F0" transform="translate(0,0)"/>
<path d="M0 0 C6.95990773 4.69793772 10.22295236 10.65438004 12.37109375 18.6796875 C14.5572966 30.90431292 14.14811955 44.13418178 7.4296875 54.94921875 C6.04807472 56.82192612 4.55145821 58.60903423 3.03125 60.37109375 C6.66125 62.35109375 10.29125 64.33109375 14.03125 66.37109375 C12.71125 69.01109375 11.39125 71.65109375 10.03125 74.37109375 C8.46746708 73.60286641 6.905284 72.83138211 5.34375 72.05859375 C4.47363281 71.62933594 3.60351562 71.20007813 2.70703125 70.7578125 C0.03125 69.37109375 0.03125 69.37109375 -2.2890625 67.6953125 C-5.943728 65.88928975 -9.20244063 66.2589438 -13.15625 66.49609375 C-20.41123902 66.68744263 -26.1597117 66.20070118 -31.96875 61.37109375 C-39.11848779 53.4727723 -41.53364688 43.98896016 -41.40625 33.55859375 C-41.39867676 32.68493164 -41.39110352 31.81126953 -41.38330078 30.91113281 C-41.11525041 20.34173065 -38.47639042 11.10284284 -30.96875 3.37109375 C-22.12632011 -3.62916325 -10.18884434 -5.33437684 0 0 Z " fill="#080808" transform="translate(351.96875,150.62890625)"/>
<path d="M0 0 C4.95 0 9.9 0 15 0 C16.41860225 4.22852594 17.83492282 8.45779438 19.25 12.6875 C19.64574219 13.86634766 20.04148438 15.04519531 20.44921875 16.25976562 C22.75922053 23.17083652 24.98472555 30.09924285 27.09667969 37.07348633 C28.02003717 40.06491501 28.99951634 43.03357147 30 46 C32.04354082 42.93468878 33.04982517 40.29607128 34.2421875 36.8203125 C34.88220703 34.96019531 34.88220703 34.96019531 35.53515625 33.0625 C35.75574707 32.41410156 35.97633789 31.76570313 36.20361328 31.09765625 C36.86139406 29.16497672 37.52577373 27.23467487 38.19140625 25.3046875 C40.68232153 18.04943394 43.02957948 10.76539455 45.20751953 3.40966797 C46 1 46 1 47 0 C49.18639453 -0.07258946 51.37500389 -0.08373783 53.5625 -0.0625 C55.35880859 -0.04896484 55.35880859 -0.04896484 57.19140625 -0.03515625 C58.11824219 -0.02355469 59.04507813 -0.01195312 60 0 C65.48320428 45.49740947 65.48320428 45.49740947 65 67 C61.37 67 57.74 67 54 67 C53.91435791 65.73929687 53.82871582 64.47859375 53.74047852 63.1796875 C53.42031976 58.47559177 53.09719148 53.77170381 52.77319336 49.06787109 C52.63371856 47.0370016 52.49503521 45.00607758 52.35717773 42.97509766 C52.15820042 40.04574926 51.95632117 37.11661263 51.75390625 34.1875 C51.6934462 33.28821777 51.63298615 32.38893555 51.57069397 31.46240234 C51.20921504 26.27832181 50.69353147 21.1504526 50 16 C44.92095367 31.88708113 44.92095367 31.88708113 39.9765625 47.81640625 C38.01238982 54.21960919 36.00195066 60.60852638 34 67 C31.03 67 28.06 67 25 67 C23.33303193 62.08683094 21.73341562 57.16044022 20.20361328 52.20263672 C18.5607885 46.87878338 16.89802529 41.59277596 14.9375 36.375 C12.56481974 30.03171195 10.79108973 23.52604503 9 17 C8.15289619 25.1430938 7.74945719 33.25622807 7.5 41.4375 C7.23838017 49.98859248 6.79779056 58.48087486 6 67 C2.7 67 -0.6 67 -4 67 C-4.84563041 44.52032483 -2.29893362 22.3290042 0 0 Z " fill="#080808" transform="translate(145,149)"/>
<path d="M0 0 C4.35773248 1.81683923 8.6372335 3.6372335 12 7 C13.78167253 7.31338865 15.57686803 7.55178073 17.375 7.75 C28.75750193 9.52000628 37.52989224 15.464624 46 23 C46.68707031 23.59296875 47.37414062 24.1859375 48.08203125 24.796875 C58.6608321 34.56192194 64.45333792 47.54179123 70.0546875 60.53125 C70.56189331 61.68826416 70.56189331 61.68826416 71.0793457 62.86865234 C71.86747612 64.69320248 72.61209338 66.53644308 73.34765625 68.3828125 C75.55880988 71.88511258 77.78836799 72.74271898 81.5625 74.375 C89.9470136 78.20838657 96.54885371 83.41749552 103 90 C102.505 91.485 102.505 91.485 102 93 C98.83984375 93.94921875 98.83984375 93.94921875 94.9375 94.6875 C93.64714844 94.93886719 92.35679687 95.19023437 91.02734375 95.44921875 C90.02832031 95.63097656 89.02929688 95.81273437 88 96 C88 96.66 88 97.32 88 98 C89.43526292 99.08169084 90.92638196 100.08958839 92.4375 101.0625 C97.95341734 104.79223583 102.45493064 109.15851307 107 114 C106.67 114.66 106.34 115.32 106 116 C105.55011719 115.63648438 105.10023438 115.27296875 104.63671875 114.8984375 C99.83490018 111.14551317 94.86998152 108.23166956 89.4921875 105.37890625 C85.38202387 103.1047875 82.59992587 100.8998888 80 97 C80.33 95.35 80.66 93.7 81 92 C86.28 91.01 91.56 90.02 97 89 C87.37751573 82.37667912 87.37751573 82.37667912 76.6875 78 C69.40763272 75.19855973 67.06237975 69.2069711 63.94921875 62.49609375 C62.21720968 58.56412343 60.57467089 54.59722428 58.9375 50.625 C52.66796047 35.61245876 40.26349492 21.58471229 25.0625 15.1875 C22.01203126 14.12620372 19.21700253 13.81654672 16 13.625 C11.37992499 13.29093304 8.53172863 11.92155126 4.7890625 9.25390625 C1.09287378 6.66334604 -1.4578863 5.74766035 -6 6 C-5.38396086 9.78424046 -3.6286807 12.07078407 -1.375 15.125 C2.71906001 21.07130979 5.2561477 27.15208153 7.65283203 33.94384766 C7.91821777 34.68554199 8.18360352 35.42723633 8.45703125 36.19140625 C8.68366455 36.85342041 8.91029785 37.51543457 9.14379883 38.19750977 C9.92295709 40.10021948 9.92295709 40.10021948 11.5769043 41.56616211 C13 43 13 43 13.3125 45.75 C13 49 13 49 12 52 C9.42640247 60.39216585 10.0332139 69.61840266 13.9296875 77.42578125 C14.92576613 79.16630477 14.92576613 79.16630477 17 80 C16.94779297 79.12988281 16.94779297 79.12988281 16.89453125 78.2421875 C16.71469722 73.05269113 16.97085591 69.43553242 20 65 C22.109375 63.83984375 22.109375 63.83984375 24 63 C24.29132813 63.75023437 24.58265625 64.50046875 24.8828125 65.2734375 C27.38590606 71.52330005 30.14671019 77.26120233 33.765625 82.94140625 C35 85 35 85 36 88 C32.43903909 86.5378836 30.63829761 84.6621587 28.3125 81.625 C27.71050781 80.85414062 27.10851562 80.08328125 26.48828125 79.2890625 C25.0764113 77.11752499 24.43308159 75.52919648 24 73 C23.34 73 22.68 73 22 73 C22.04125 74.0725 22.0825 75.145 22.125 76.25 C22.0114175 79.65747485 21.78726636 81.20739631 20 84 C17.3125 84.375 17.3125 84.375 14 84 C8.27727046 78.94270413 6.36023841 72.41854931 5.75 64.93359375 C5.63463153 59.17238089 6.22077028 54.44889101 8 49 C8.82929941 44.3796176 6.89520229 42.16538328 4.4140625 38.4921875 C2.70867542 35.48656054 1.74524452 32.47586222 0.6875 29.1875 C-1.01860228 24.08012971 -2.99544922 20.30225153 -6.3125 16.0625 C-10.56267835 10.59913274 -10.56267835 10.59913274 -10.75 7.0625 C-9.2566634 0.96470888 -6.14159485 -1.02359914 0 0 Z " fill="#111111" transform="translate(321,37)"/>
<path d="M0 0 C5.27737092 2.20690057 7.02156317 5.2696232 9.16870117 10.29614258 C10.72026513 15.34271258 10.53388206 20.3892777 10.4375 25.625 C10.44458984 26.718125 10.45167969 27.81125 10.45898438 28.9375 C10.39140134 37.52574472 9.07351616 43.55839195 3 50 C-0.04507699 52.28380774 -3.21183398 52.43064496 -6.9765625 52.3046875 C-10.50818443 51.77289887 -12.38331217 50.37880712 -15 48 C-19.62824821 40.65099246 -20.18222322 34.26671704 -20.1875 25.75 C-20.19974609 24.72519531 -20.21199219 23.70039063 -20.22460938 22.64453125 C-20.24205849 13.60589083 -19.36025954 7.67827251 -13 1 C-9.04124009 -0.97937996 -4.31482563 -0.41500445 0 0 Z " fill="#EBEBEB" transform="translate(343,157)"/>
<path d="M0 0 C2.16015625 1.10546875 2.16015625 1.10546875 5.09765625 3.10546875 C4.43765625 5.08546875 3.77765625 7.06546875 3.09765625 9.10546875 C2.24429688 8.945625 1.3909375 8.78578125 0.51171875 8.62109375 C-2.87561722 8.10950525 -6.10356401 7.90357807 -9.52734375 7.85546875 C-10.63335937 7.8296875 -11.739375 7.80390625 -12.87890625 7.77734375 C-16.22290292 8.14025812 -17.5911518 8.68871755 -19.90234375 11.10546875 C-20.36975119 15.39003691 -20.26464807 18.48059239 -17.90234375 22.10546875 C-15.71095591 23.7066492 -15.71095591 23.7066492 -13.0703125 25.05859375 C-12.10673828 25.59613281 -11.14316406 26.13367188 -10.15039062 26.6875 C-8.12561413 27.79098381 -6.09700259 28.8874624 -4.06445312 29.9765625 C1.98852466 33.37203705 6.50649616 36.46266142 9.09765625 43.10546875 C10.04759249 48.22480598 9.55350182 51.89491078 6.91015625 56.41796875 C2.488197 62.62595611 -2.54151814 65.47624143 -9.90234375 67.10546875 C-18.51037108 68.24315389 -25.74172995 65.87921128 -32.90234375 61.10546875 C-31.15234375 56.23046875 -31.15234375 56.23046875 -28.90234375 55.10546875 C-27.01953125 55.6640625 -27.01953125 55.6640625 -24.77734375 56.54296875 C-18.95536591 58.57084867 -14.43920152 59.09202455 -8.52734375 56.79296875 C-5.68536 55.21326628 -5.68536 55.21326628 -3.90234375 52.10546875 C-3.1513184 48.73363333 -3.1513184 48.73363333 -3.90234375 45.10546875 C-8.47554785 39.97455683 -14.51025464 36.81940699 -20.48266602 33.52783203 C-25.52643539 30.65885133 -29.2505015 27.40915326 -31.90234375 22.10546875 C-32.42073141 16.90459583 -32.56829774 12.48860397 -30.27734375 7.73046875 C-22.14789013 -1.25471683 -11.73124988 -3.61568805 0 0 Z " fill="#080808" transform="translate(297.90234375,149.89453125)"/>
<path d="M0 0 C3.63 0 7.26 0 11 0 C11.30292969 0.969375 11.60585937 1.93875 11.91796875 2.9375 C12.1180957 3.5776001 12.31822266 4.2177002 12.52441406 4.87719727 C12.97108018 6.30715378 13.41702947 7.73733437 13.86230469 9.16772461 C15.02845301 12.91027566 16.20543896 16.64857619 17.41015625 20.37890625 C17.63485596 21.08080078 17.85955566 21.78269531 18.09106445 22.50585938 C18.5187186 23.84063467 18.95060252 25.17406494 19.38745117 26.50585938 C20.71911274 30.68439006 21.48659293 34.66394244 22 39 C26.18482374 25.9823231 29.18257727 13.59200194 31 0 C34.63 0 38.26 0 42 0 C40.83601301 16.52861523 34.74221948 32.69417894 27.8125 47.625 C27.50425293 48.29249268 27.19600586 48.95998535 26.87841797 49.64770508 C23.28216406 57.02984048 19.10234481 61.60863536 11.640625 65.09375 C7.72490319 66.43760719 4.08253992 66.61590042 0 66 C-0.66 65.67 -1.32 65.34 -2 65 C-2 63.02 -2 61.04 -2 59 C-1.16855469 58.90203125 -0.33710938 58.8040625 0.51953125 58.703125 C1.60621094 58.55359375 2.69289062 58.4040625 3.8125 58.25 C4.89144531 58.11078125 5.97039062 57.9715625 7.08203125 57.828125 C10.0526144 57.23469381 10.0526144 57.23469381 11.85546875 55.1953125 C14.43852912 50.2407735 13.61085724 45.03870461 12.05078125 39.83203125 C11.20043395 37.500953 10.32671371 35.17830891 9.43359375 32.86328125 C7.57812251 28.01235134 6.19213918 23.03344419 4.78833008 18.03686523 C3.79011041 14.52895673 2.69019379 11.13663003 1.3515625 7.7421875 C0 4 0 4 0 0 Z " fill="#060606" transform="translate(216,167)"/>
<path d="M0 0 C3.63 0 7.26 0 11 0 C11 19.47 11 38.94 11 59 C17.93 59 24.86 59 32 59 C32 61.64 32 64.28 32 67 C21.44 67 10.88 67 0 67 C0 44.89 0 22.78 0 0 Z " fill="#080808" transform="translate(374,149)"/>
<path d="M0 0 C3.875 0.875 3.875 0.875 5 2 C5.04063832 3.66617115 5.042721 5.33388095 5 7 C4.34 7 3.68 7 3 7 C0 2.61538462 0 2.61538462 0 0 Z " fill="#161616" transform="translate(335,57)"/>
</svg>
